<svg xmlns="http://www.w3.org/2000/svg" xmlns:xlink="http://www.w3.org/1999/xlink" fill="none" version="1.1"
  width="50.25" height="50.25" viewBox="0 0 50.25 50.25">
  <g>
    <path
      d="M0,5.58333L0,44.6667C0,47.7503,2.49974,50.25,5.58333,50.25L44.6667,50.25C47.7375,50.25,50.25,47.7375,50.25,44.6667L50.25,5.58333C50.25,2.5125,47.7375,0,44.6667,0L5.58333,0C2.49974,0,0.00000127792,2.49974,0,5.58333ZM33.5,16.75C33.5062,21.3779,29.7529,25.1312,25.125,25.125C20.4971,25.1312,16.7438,21.3779,16.75,16.75C16.7438,12.1221,20.4971,8.36882,25.125,8.375C29.7529,8.36882,33.5062,12.1221,33.5,16.75ZM8.375,39.1503C8.375,33.7047,19.5417,30.7083,25.125,30.7083C30.7083,30.7083,41.875,33.7047,41.875,39.1503L41.875,41.875L8.375,41.875L8.375,39.1503Z"
      fill="#BFBFBF" fill-opacity="1" />
  </g>
</svg>