<svg t="1727404815027" class="icon" viewBox="0 0 1024 1024" version="1.1" xmlns="http://www.w3.org/2000/svg" p-id="1467"
  width="200" height="200">
  <path d="M640 0H128a64 64 0 0 0-64 64v896a64 64 0 0 0 64 64h768a64 64 0 0 0 64-64V320L640 0z" fill="#3AAD73"
    p-id="1468"></path>
  <path d="M640 0v256a64 64 0 0 0 64 64h256L640 0z" fill="#434854" p-id="1469"></path>
  <path d="M704 320l256 256v-256z" fill="" p-id="1470"></path>
  <path
    d="M748.8 471.808c-24.544-24.512-70.624-18.112-95.136 6.368l-202.304 202.304-88.736-88.736a62.784 62.784 0 0 0-88.768 88.736l133.152 133.152a62.784 62.784 0 0 0 88.736 0l255.264-251.232c24.448-24.448 22.272-66.08-2.208-90.592z"
    fill="#FFFFFF" p-id="1471"></path>
</svg>